<?xml version="1.0" standalone="no"?>
<!DOCTYPE svg PUBLIC "-//W3C//DTD SVG 20010904//EN"
 "http://www.w3.org/TR/2001/REC-SVG-20010904/DTD/svg10.dtd">
<svg version="1.0" xmlns="http://www.w3.org/2000/svg"
 width="512.000000pt" height="512.000000pt" viewBox="0 0 512.000000 512.000000"
 preserveAspectRatio="xMidYMid meet">
<metadata>
Created by potrace 1.11, written by Peter Selinger 2001-2013
</metadata>
<g transform="translate(0.000000,512.000000) scale(0.100000,-0.100000)"
fill="#000000" stroke="none">
<path d="M2503 4852 c-121 -43 -204 -151 -212 -278 -1 -7 -25 -14 -56 -16 -59
-5 -94 -24 -129 -72 -19 -25 -21 -41 -21 -205 l0 -178 28 -36 c52 -69 40 -67
496 -64 396 2 410 3 437 23 67 49 69 58 69 254 0 165 -2 181 -21 207 -33 45
-77 69 -130 72 -27 1 -49 3 -50 4 -1 1 -4 16 -7 32 -18 101 -64 173 -141 222
-80 51 -179 64 -263 35z m173 -165 c30 -15 74 -85 74 -115 0 -9 -41 -12 -149
-12 l-150 0 5 28 c18 97 128 147 220 99z m284 -407 l0 -120 -360 0 -360 0 0
120 0 120 360 0 360 0 0 -120z"/>
<path d="M1234 4298 c-116 -38 -212 -135 -253 -254 -20 -58 -20 -77 -21 -1734
0 -1851 -4 -1738 64 -1844 55 -86 139 -146 243 -173 64 -17 146 -18 1373 -13
l1305 5 64 33 c85 45 155 116 194 200 l32 67 0 1710 0 1710 -25 63 c-36 92
-103 163 -198 209 l-76 38 -368 3 -368 3 0 -80 0 -81 334 0 c392 0 410 -3 479
-80 23 -26 47 -65 54 -86 9 -30 12 -429 13 -1699 l0 -1660 -24 -51 c-28 -61
-92 -117 -149 -133 -31 -9 -378 -11 -1327 -9 -1229 3 -1287 4 -1322 22 -47 23
-91 68 -115 115 -17 34 -18 122 -21 1701 -2 1254 0 1676 9 1708 7 25 30 63 56
92 70 78 81 80 475 80 l338 0 0 80 0 80 -352 0 c-327 -1 -358 -3 -414 -22z"/>
<path d="M1941 3222 l-129 -129 -83 83 c-89 89 -110 101 -133 75 -13 -14 -13
-21 -2 -41 22 -43 204 -215 223 -212 10 2 85 71 167 153 143 144 148 150 133
172 -8 12 -22 23 -30 25 -10 2 -68 -48 -146 -126z"/>
<path d="M2362 3188 c-15 -15 -15 -41 0 -56 9 -9 158 -12 609 -12 523 0 599 2
613 15 10 11 13 22 7 38 l-8 22 -605 3 c-461 2 -607 -1 -616 -10z"/>
<path d="M1944 2558 c-69 -68 -127 -125 -130 -127 -2 -3 -44 35 -93 83 -49 49
-91 89 -94 90 -8 2 -47 -36 -47 -47 0 -18 214 -227 232 -227 18 0 287 260 306
296 12 23 -6 54 -32 54 -10 0 -74 -55 -142 -122z"/>
<path d="M2362 2508 c-15 -15 -15 -41 0 -56 9 -9 158 -12 609 -12 523 0 599 2
613 15 10 11 13 22 7 38 l-8 22 -605 3 c-461 2 -607 -1 -616 -10z"/>
<path d="M1776 2060 c-31 -10 -106 -59 -106 -69 0 -4 -10 -18 -22 -31 -13 -14
-22 -27 -21 -30 1 -3 -2 -22 -8 -43 -20 -76 11 -176 73 -234 65 -61 184 -77
264 -35 177 91 179 329 4 429 -38 21 -134 28 -184 13z m154 -91 c97 -55 107
-195 18 -262 -63 -48 -148 -43 -206 13 -32 30 -54 89 -47 125 2 11 4 27 4 36
1 19 56 82 86 98 33 18 104 13 145 -10z"/>
<path d="M2356 1854 c-14 -56 -35 -54 615 -54 523 0 599 2 613 15 10 11 13 22
7 38 l-8 22 -611 3 -610 2 -6 -26z"/>
<path d="M1755 1376 c-96 -45 -139 -111 -139 -216 0 -52 5 -75 27 -115 74
-134 260 -165 368 -61 52 50 70 87 76 158 17 181 -168 311 -332 234z m183 -83
c46 -34 72 -81 72 -132 0 -49 -32 -117 -50 -106 -6 4 -9 1 -8 -5 2 -7 -13 -21
-32 -32 -43 -24 -117 -19 -159 12 -58 41 -82 127 -55 195 33 83 161 121 232
68z"/>
<path d="M2358 1175 c-8 -19 -8 -28 2 -40 11 -13 86 -15 609 -15 328 0 601 4
607 8 17 11 22 35 12 55 -8 16 -48 17 -614 17 l-604 0 -12 -25z"/>
</g>
</svg>
